<?xml version="1.0" encoding="UTF-8"?>
<svg id="Camada_3" data-name="Camada 3" xmlns="http://www.w3.org/2000/svg" viewBox="0 0 860.28 142.81">
  <defs>
    <style>
      .cls-1 {
        fill: #fee502;
      }
    </style>
  </defs>
  <g id="MULTICLUBES">
    <g>
      <path class="cls-1" d="M169.04,64.95c-3.38-13.53-8.17-24.49-14.24-32.57-8.52-11.36-19.85-17.36-32.76-17.36-11.2,0-23.29,5.09-34.82,14.51-11.53-9.42-23.62-14.51-34.82-14.51-12.92,0-24.25,6-32.76,17.36-6.06,8.08-10.85,19.04-14.24,32.57C1.54,80.38.36,95.64,0,103.63c-.14,3.11,2.35,5.71,5.46,5.71h10.56c2.93,0,5.34-2.3,5.47-5.22.96-22.04,7.7-67.6,30.9-67.6,5.65,0,12.6,3.04,19.62,8.41-15.19,18.72-24.29,41.65-23.66,60.6.81,24.47,20.17,37.27,38.87,37.27s38.06-12.8,38.87-37.27c.63-18.95-8.47-41.88-23.66-60.6,7.01-5.37,13.97-8.41,19.62-8.41,23.2,0,29.94,45.56,30.9,67.59.13,2.92,2.54,5.22,5.46,5.22h10.56c3.12,0,5.6-2.6,5.47-5.71-.36-8-1.53-23.25-5.39-38.68ZM104.58,104.83c-.4,12.15-9.6,16.47-17.36,16.47s-16.96-4.31-17.36-16.47c-.43-12.98,6.46-30.15,17.36-44.39,10.9,14.24,17.79,31.41,17.36,44.39Z"/>
      <path class="cls-1" d="M468.02,89.09l-3.78-2.89c-2.89-2.23-5.58-1.81-8.19.8-6.9,7.15-20.91,7.23-26.92-.72-6.49-7.43-6.47-22.99-.16-30.37,5.31-7.45,19.72-7.64,25.98-1.53,2.87,2.62,5.39,3.05,8.03.8l3.78-2.73c3.13-2.74,3.76-5.17,1.42-8.36-9.56-14.11-32.71-16.57-47.16-7.63-5.83,3.48-10.37,8.25-13.62,14.3-6.56,11.73-6.35,29.26-.31,40.98,11.54,22.4,38.48,21.61,50.3,15.91,4.78-2.3,8.9-5.81,12.36-10.53,1.92-2.85,1.35-5.83-1.73-8.03Z"/>
      <path class="cls-1" d="M753.15,31.24c-23.6,0-37.63,19.08-37.63,40.01,0,29.17,20.38,39.85,39.05,39.85,13.75,0,24.09-4.28,31.02-12.86,1.73-2.14,2.45-4.91-1.26-8.03l-3.15-2.73c-2.2-1.9-3.85-2.96-8.19.48-4.26,3.38-8.78,5.46-16.85,5.46-12.26,0-18.81-7.61-20.31-17.19h47.86c5.77,0,5.2-5.95,5.2-5.95,0-17.35-7.92-39.05-35.74-39.05ZM736.15,61.93c2-10,8.6-14.3,17.48-14.3s14.01,4.77,14.96,14.3h-32.43Z"/>
      <path class="cls-1" d="M833.67,62.09c-11.34-2.1-14.33-3.28-14.33-7.55,0-8.87,16.62-6.21,19.21-5.54,2.31.59,4.57,1.53,6.77,2.81,2.28,1.33,5.56,2.45,8.19-.96l2.36-3.05c2.63-3.42,2.02-6.29-.63-8.36-8.36-6.52-17.01-8.2-25.66-8.2-6.09,0-11.49.99-16.22,2.97-10.89,4.57-14.96,12.87-14.96,20.65,0,14.08,8.48,21.49,26.77,24.43,10.72,1.72,14.01,3.27,14.01,7.71,0,5.18-4.51,6.59-11.81,6.59s-13.7-1.55-18.74-4.66c-2.67-1.65-5.73-2.26-8.34,1.29l-2.36,3.37c-2.49,3.81-1.88,6.19.94,8.36,7.1,5.43,16.01,9.16,30.86,9.16,18.81,0,30.54-10.55,30.54-24.1,0-15.09-9.24-21.69-26.61-24.91Z"/>
      <rect class="cls-1" x="271.16" y="12.44" width="21.57" height="96.9" rx="5.47" ry="5.47"/>
      <rect class="cls-1" x="370.76" y="33.01" width="21.57" height="76.33" rx="5.47" ry="5.47"/>
      <path class="cls-1" d="M530.17,92.47c-1.16-1.82-2.68-2.73-4.57-2.73-.94,0-2.1.27-3.46.8-2.52,1.18-5.04,1.77-7.56,1.77-9.03,0-13.54-5.36-13.54-16.07V17.91c0-3.02-2.45-5.47-5.47-5.47h-10.63c-3.02,0-5.47,2.45-5.47,5.47v57.52c0,23.78,10.55,35.68,31.65,35.68,8.4,0,15.53-2.25,21.41-6.75,1.15-.96,1.73-2.14,1.73-3.54s-.47-2.78-1.42-4.18l-2.68-4.18Z"/>
      <path class="cls-1" d="M357.4,92.47c-1.16-1.82-2.68-2.73-4.57-2.73-.94,0-2.1.27-3.46.8-2.52,1.18-5.04,1.77-7.56,1.77-9.03,0-13.54-5.36-13.54-16.07v-24.91h19.29c3.88,0,5.83-1.98,5.83-5.95v-6.43c0-3.96-1.94-5.95-5.83-5.95h-19.29v-15.1c0-3.02-2.45-5.47-5.47-5.47h-10.63c-3.02,0-5.47,2.45-5.47,5.47v57.52c0,23.78,10.55,35.68,31.65,35.68,8.4,0,15.53-2.25,21.41-6.75,1.15-.96,1.73-2.14,1.73-3.54s-.47-2.78-1.42-4.18l-2.68-4.18Z"/>
      <path class="cls-1" d="M251.72,33.01h-10.63c-3.02,0-5.47,2.45-5.47,5.47v31.01c0,16.25-7.58,22.82-17.48,22.82-9.31,0-12.75-6.73-12.75-15.59v-38.24c0-3.02-2.45-5.47-5.47-5.47h-10.63c-3.02,0-5.47,2.45-5.47,5.47v37.44c0,27.99,15.07,35.19,29.13,35.19,9.97,0,18.11-4.02,24.4-12.05.21,2.25.52,4.29.94,6.11.73,2.79,2.83,4.18,6.3,4.18h7.13c3.02,0,5.47-2.45,5.47-5.47V38.48c0-3.02-2.45-5.47-5.47-5.47Z"/>
      <path class="cls-1" d="M606.96,33.01h-10.63c-3.02,0-5.47,2.45-5.47,5.47v31.01c0,16.25-7.58,22.82-17.48,22.82-9.31,0-12.75-6.73-12.75-15.59v-38.24c0-3.02-2.45-5.47-5.47-5.47h-10.63c-3.02,0-5.47,2.45-5.47,5.47v37.44c0,27.99,15.07,35.19,29.13,35.19,9.97,0,18.11-4.02,24.4-12.05.21,2.25.52,4.29.94,6.11.73,2.79,2.83,4.18,6.3,4.18h7.13c3.02,0,5.47-2.45,5.47-5.47V38.48c0-3.02-2.45-5.47-5.47-5.47Z"/>
      <circle class="cls-1" cx="381.62" cy="12.44" r="12.44" transform="translate(24.29 146.99) rotate(-22.5)"/>
      <path class="cls-1" d="M672.22,31.24c-11,0-19.1,5.17-24.25,10.77v-24.1c0-3.02-2.45-5.47-5.47-5.47h-10.63c-3.02,0-5.47,2.45-5.47,5.47v85.96c0,3.02,2.45,5.47,5.47,5.47h6.97c3.67,0,5.88-1.66,6.61-4.98.42-2.36.68-4.07.79-5.14,5.54,6.82,13.86,11.89,25.19,11.89,20.56,0,34.8-15.63,34.8-39.69,0-10.71-4.22-40.17-34.01-40.17ZM667.02,92.31c-9.18,0-19.05-5.06-19.05-20.25v-2.73c0-12.64,8.4-19.28,19.37-19.28,12.75,0,17.32,10.65,17.32,21.53,0,14.41-7.4,20.73-17.63,20.73Z"/>
    </g>
  </g>
</svg>